<?xml version="1.0" encoding="UTF-8"?>
<!DOCTYPE svg PUBLIC "-//W3C//DTD SVG 1.1//EN" "http://www.w3.org/Graphics/SVG/1.1/DTD/svg11.dtd">
<svg xmlns="http://www.w3.org/2000/svg" version="1.1" width="128px" height="128px" style="shape-rendering:geometricPrecision; text-rendering:geometricPrecision; image-rendering:optimizeQuality; fill-rule:evenodd; clip-rule:evenodd" xmlns:xlink="http://www.w3.org/1999/xlink">
<g><path style="opacity:0.984" fill="#51b428" d="M 18.5,25.5 C 48.8352,25.3334 79.1685,25.5 109.5,26C 113,26.8333 115.167,29 116,32.5C 116.979,55.5882 116.645,78.5882 115,101.5C 113.363,103.81 111.196,105.31 108.5,106C 78.5,106.667 48.5,106.667 18.5,106C 15.4173,105.214 13.2506,103.381 12,100.5C 11.3333,77.5 11.3333,54.5 12,31.5C 13.4361,28.5581 15.6028,26.5581 18.5,25.5 Z M 20.5,29.5 C 48.9971,28.3362 77.6637,28.1696 106.5,29C 92.3055,39.3609 77.9722,49.5276 63.5,59.5C 49.1306,49.4495 34.7973,39.4495 20.5,29.5 Z M 23.5,48.5 C 35.2339,56.0606 46.5673,64.2273 57.5,73C 46.1345,81.3531 35.1345,90.1864 24.5,99.5C 23.5005,82.5131 23.1672,65.5131 23.5,48.5 Z M 102.5,48.5 C 103.725,49.1522 104.392,50.3189 104.5,52C 103.72,67.8174 103.22,83.6507 103,99.5C 92.1062,90.3054 80.9395,81.4721 69.5,73C 80.5678,64.8124 91.5678,56.6458 102.5,48.5 Z M 58.5,74.5 C 60.4835,74.3832 62.1502,75.0499 63.5,76.5C 65.0778,75.3595 66.7445,74.8595 68.5,75C 79.5,84 90.5,93 101.5,102C 76.1667,102.667 50.8333,102.667 25.5,102C 36.6902,92.9689 47.6902,83.8022 58.5,74.5 Z"/></g>
</svg>
