<?xml version="1.0" encoding="UTF-8"?>
<!DOCTYPE svg PUBLIC "-//W3C//DTD SVG 1.1//EN" "http://www.w3.org/Graphics/SVG/1.1/DTD/svg11.dtd">
<svg xmlns="http://www.w3.org/2000/svg" version="1.1" width="128px" height="128px" style="shape-rendering:geometricPrecision; text-rendering:geometricPrecision; image-rendering:optimizeQuality; fill-rule:evenodd; clip-rule:evenodd" xmlns:xlink="http://www.w3.org/1999/xlink">
<g><path style="opacity:0.934" fill="#6ac159" d="M 44.5,-0.5 C 47.1667,-0.5 49.8333,-0.5 52.5,-0.5C 52.5,10.5 52.5,21.5 52.5,32.5C 51.325,32.281 50.325,32.6143 49.5,33.5C 40.1675,53.4947 40.1675,73.4947 49.5,93.5C 50.325,94.3857 51.325,94.719 52.5,94.5C 52.5,105.5 52.5,116.5 52.5,127.5C 49.8333,127.5 47.1667,127.5 44.5,127.5C 31.1075,118.081 23.2742,105.081 21,88.5C 16.2692,64.8874 18.2692,41.8874 27,19.5C 30.923,11.0823 36.7564,4.41565 44.5,-0.5 Z"/></g>
<g><path style="opacity:0.873" fill="#6ac258" d="M 54.5,-0.5 C 59.8333,-0.5 65.1667,-0.5 70.5,-0.5C 71.6168,9.45311 71.7835,19.4531 71,29.5C 70.5,30.6667 69.6667,31.5 68.5,32C 63.8452,32.4992 59.1785,32.6658 54.5,32.5C 54.5,21.5 54.5,10.5 54.5,-0.5 Z"/></g>
<g><path style="opacity:0.773" fill="#6ac259" d="M 93.5,31.5 C 95.7157,32.2026 97.549,33.5359 99,35.5C 111.667,54.1667 111.667,72.8333 99,91.5C 95.1401,96.8497 91.9734,96.3497 89.5,90C 102.833,72.3333 102.833,54.6667 89.5,37C 90.6502,35.019 91.9835,33.1857 93.5,31.5 Z"/></g>
<g><path style="opacity:0.776" fill="#69c258" d="M 83.5,41.5 C 86.6421,41.7993 88.8088,43.4659 90,46.5C 96.4943,59.2421 95.8276,71.5755 88,83.5C 87.2613,84.5742 86.2613,85.2409 85,85.5C 82.704,84.372 80.8707,82.7054 79.5,80.5C 88.8279,69.148 88.8279,57.8146 79.5,46.5C 80.8569,44.8144 82.1902,43.1477 83.5,41.5 Z"/></g>
<g><path style="opacity:0.74" fill="#69c158" d="M 74.5,50.5 C 79.1174,53.3886 81.4507,57.722 81.5,63.5C 81.3633,68.7691 79.3633,73.1025 75.5,76.5C 73.3501,74.8509 71.3501,73.0176 69.5,71C 73.5,66 73.5,61 69.5,56C 71.3734,54.2962 73.0401,52.4628 74.5,50.5 Z"/></g>
<g><path style="opacity:0.873" fill="#6ac258" d="M 70.5,127.5 C 65.1667,127.5 59.8333,127.5 54.5,127.5C 54.5,116.5 54.5,105.5 54.5,94.5C 59.5111,94.3341 64.5111,94.5007 69.5,95C 70.1258,95.7504 70.6258,96.5838 71,97.5C 71.7835,107.547 71.6168,117.547 70.5,127.5 Z"/></g>
</svg>
